<svg xmlns="http://www.w3.org/2000/svg" viewBox="0 0 2400 1024" fill="none">
  <defs>
    <linearGradient id="fGradient" x1="130" y1="140" x2="850" y2="900" gradientUnits="userSpaceOnUse">
      <stop offset="0" stop-color="#103A42"/>
      <stop offset="0.5" stop-color="#2d7888"/>
      <stop offset="1" stop-color="#6BA7AE"/>
    </linearGradient>
    <linearGradient id="boltGradient" x1="510" y1="55" x2="460" y2="870" gradientUnits="userSpaceOnUse">
      <stop offset="0" stop-color="#ffe95a"/>
      <stop offset="0.55" stop-color="#ffc21a"/>
      <stop offset="1" stop-color="#ff9f00"/>
    </linearGradient>
  </defs>

  <!-- F letter — same style as logo-filers-icon.svg -->
  <path fill="url(#fGradient)" d="
    M 148 150 C 130 150 118 162 118 180 L 118 844 C 118 862 130 874 148 874
    L 338 874 C 356 874 368 862 368 844 L 368 572 L 668 572
    C 686 572 698 560 698 542 L 698 432 C 698 414 686 402 668 402
    L 368 402 L 368 286 L 828 286 C 846 286 858 274 858 256
    L 858 180 C 858 162 846 150 828 150 Z"/>

  <!-- Lightning bolt -->
  <path fill="url(#boltGradient)" d="
    M 582 52 C 600 49 613 65 608 82 L 543 348 C 539 364 552 378 568 375
    L 652 359 C 670 356 683 375 674 391 L 462 858 C 451 878 421 868 425 845
    L 462 630 C 465 613 450 600 434 605 L 360 627 C 343 632 328 618 330 600
    L 378 130 C 379 116 390 105 404 103 Z"/>

  <!-- Wordmark -->
  <text x="878" y="712" font-family="'Inter','Helvetica Neue',Arial,sans-serif"
        font-size="620" font-weight="800" letter-spacing="-24" fill="#111827">ilers</text>
</svg>
